<svg xmlns="http://www.w3.org/2000/svg"
     width="4"
     height="32"
     viewBox="0 0 1.058 8.467">
    <g fill="none"
       stroke="#000"
       stroke-width=".265">
        <path d="M1.056 2.17a.92 1.025 0 01-.8-.512A.92 1.025 0 01.257.63a.92 1.025 0 01.8-.51"/>
        <path d="M1.062 4.22a.925 1.025 0 01-.805-.512.925 1.025 0 010-1.028.925 1.025 0 01.806-.51"/>
        <path d="M1.062 6.27a.925 1.025 0 01-.805-.511.925 1.025 0 010-1.028.925 1.025 0 01.806-.51"/>
        <path d="M1.056 8.321a.92 1.025 0 01-.8-.512.92 1.025 0 01.001-1.028.92 1.025 0 01.8-.51"/>
    </g>
</svg>
