<svg xmlns="http://www.w3.org/2000/svg"
     width="84"
     height="66"
     viewBox="0 0 22.225 17.462">
    <g fill="none"
       stroke="#000"
       stroke-width=".265">
        <path d="M9.393 8.731a4.63 4.63 0 01-4.63 4.63 4.63 4.63 0 01-4.63-4.63 4.63 4.63 0
        014.63-4.63 4.63 4.63 0 014.63 4.63zM22.093 8.731a4.63 4.63 0 01-4.63 4.63 4.63 4.63
         0 01-4.63-4.63 4.63 4.63 0 014.63-4.63 4.63 4.63 0 014.63 4.63z"/>
        <path d="M15.743 4.762a4.63 4.63 0 01-4.63 4.63 4.63 4.63 0 01-4.63-4.63 4.63 4.63 0
        014.63-4.63 4.63 4.63 0 014.63 4.63z"/>
        <path d="M15.743 12.7a4.63 4.63 0 01-4.63 4.63 4.63 4.63 0 01-4.63-4.63 4.63 4.63 0
        014.63-4.63 4.63 4.63 0 014.63 4.63z"/>
    </g>
</svg>
