<svg xmlns="http://www.w3.org/2000/svg"
     width="94"
     height="59"
     viewBox="0 0 24.871 15.61">
    <g fill="none"
       stroke="#000"
       stroke-width=".265">
        <path d="M21.167 10.848a4.63 4.63 0 01-4.63 4.63 4.63 4.63 0 01-4.63-4.63 4.63 4.63
        0 014.63-4.63 4.63 4.63 0 014.63 4.63z"/>
        <path d="M13.23 10.848a4.63 4.63 0 01-4.631 4.63 4.63 4.63 0 01-4.63-4.63 4.63 4.63
        0 014.63-4.63 4.63 4.63 0 014.63 4.63z"/>
        <path d="M17.066 4.762a4.63 4.63 0 01-4.63 4.63 4.63 4.63 0 01-4.63-4.63 4.63 4.63
        0 014.63-4.63 4.63 4.63 0 014.63 4.63z"/>
        <path d="M24.739 4.762a4.63 4.63 0 01-4.63 4.63 4.63 4.63 0 01-4.63-4.63 4.63 4.63
        0 014.63-4.63 4.63 4.63 0 014.63 4.63zM9.393 4.762a4.63 4.63 0 01-4.63 4.63 4.63 4.63
        0 01-4.63-4.63 4.63 4.63 0 014.63-4.63 4.63 4.63 0 014.63 4.63z"/>
    </g>
</svg>
