<svg xmlns="http://www.w3.org/2000/svg"
     width="64"
     height="60"
     viewBox="0 0 16.933 15.875">
    <g fill="none"
       stroke="#000"
       stroke-width=".265">
        <path d="M16.801 11.112a4.63 4.63 0 01-4.63 4.63 4.63 4.63 0 01-4.63-4.63
        4.63 4.63 0 014.63-4.63 4.63 4.63 0 014.63 4.63z"/>
        <path d="M9.393 11.112a4.63 4.63 0 01-4.63 4.63 4.63 4.63 0 01-4.63-4.63
        4.63 4.63 0 014.63-4.63 4.63 4.63 0 014.63 4.63z"/>
        <path d="M13.362 4.762a4.63 4.63 0 01-4.63 4.63 4.63 4.63 0 01-4.63-4.63
         4.63 4.63 0 014.63-4.63 4.63 4.63 0 014.63 4.63z"/>
    </g>
</svg>
