<svg xmlns="http://www.w3.org/2000/svg"
     width="30"
     height="30"
     viewBox="0 0 7.937 7.938">
    <g fill="none"
       stroke="#000"
       stroke-width=".265">
        <path d="M7.805 5.292A2.249 2.249 0 015.556 7.54a2.249 2.249 0 01-2.249-2.25
        2.249 2.249 0 012.25-2.248 2.249 2.249 0 012.248 2.249z"/>
        <path d="M4.63 5.292A2.249 2.249 0 012.381 7.54 2.249 2.249 0 01.132 5.29a2.249
        2.249 0 012.25-2.248A2.249 2.249 0 014.63 5.292z"/>
        <path d="M6.218 2.381a2.249 2.249 0 01-2.25 2.25A2.249 2.249 0 011.72 2.38 2.249
        2.249 0 013.969.132a2.249 2.249 0 012.249 2.25z"/>
    </g>
</svg>
